<svg width="22" height="29" viewBox="0 0 22 29" fill="none" xmlns="http://www.w3.org/2000/svg">
<path d="M7.73438 16.0875L8.97187 12.1344L5.70625 9.59063H9.69375L11 5.5L12.2719 9.59063H16.2938L13.0281 12.1344L14.2313 16.0875L11 13.6469L7.73438 16.0875ZM2.8875 28.875V18.425C1.85625 17.3477 1.11719 16.1679 0.670313 14.8844C0.223438 13.6008 0 12.3062 0 11C0 7.88356 1.05394 5.27106 3.1625 3.1625C5.27106 1.05394 7.88356 0 11 0C14.1164 0 16.7289 1.05394 18.8375 3.1625C20.9461 5.27106 22 7.88356 22 11C22 12.3062 21.7766 13.6008 21.3297 14.8844C20.8828 16.1679 20.1437 17.3477 19.1125 18.425V28.875L11 26.1594L2.8875 28.875ZM11 19.9375C13.4977 19.9375 15.6117 19.0726 17.3422 17.3422C19.0726 15.6118 19.9375 13.4977 19.9375 11C19.9375 8.50231 19.0726 6.38825 17.3422 4.65781C15.6117 2.92737 13.4977 2.0625 11 2.0625C8.50231 2.0625 6.38825 2.92737 4.65781 4.65781C2.92737 6.38825 2.0625 8.50231 2.0625 11C2.0625 13.4977 2.92737 15.6118 4.65781 17.3422C6.38825 19.0726 8.50231 19.9375 11 19.9375ZM4.95 25.9875L11 24.0969L17.05 25.9875V20.1094C16.1336 20.7742 15.1477 21.2554 14.0938 21.5531C13.0398 21.8508 12.0086 22 11 22C9.99144 22 8.96019 21.8508 7.90625 21.5531C6.85231 21.2554 5.86644 20.7742 4.95 20.1094V25.9875Z" fill="#666666"/>
</svg>
