<svg width="24" height="24" viewBox="0 0 24 24" fill="none" xmlns="http://www.w3.org/2000/svg">
<g opacity="0.8">
<path d="M0 11.7748C0 5.27176 5.27177 0 11.7748 0C18.2779 0 23.5496 5.27176 23.5496 11.7748V12.2252C23.5496 18.7282 18.2779 24 11.7748 24C5.27177 24 0 18.7282 0 12.2252V11.7748Z" fill="#B00020" fill-opacity="0.1"/>
<path d="M9.02879 7.17348C8.97159 6.77952 8.99984 6.37787 9.1116 5.9958C9.22336 5.61372 9.41602 5.26017 9.6765 4.95914C9.93699 4.6581 10.2592 4.41664 10.6213 4.25115C10.9833 4.08565 11.3767 4 11.7748 4C12.1729 4 12.5663 4.08565 12.9284 4.25115C13.2904 4.41664 13.6126 4.6581 13.8731 4.95914C14.1336 5.26017 14.3263 5.61372 14.438 5.9958C14.5498 6.37787 14.578 6.77952 14.5208 7.17348L13.5996 13.6187C13.5359 14.0572 13.3164 14.4581 12.9813 14.748C12.6462 15.0378 12.2179 15.1974 11.7748 15.1974C11.3317 15.1974 10.9035 15.0378 10.5684 14.748C10.2333 14.4581 10.0138 14.0572 9.94999 13.6187L9.02879 7.17348ZM13.3741 18.4007C13.3741 18.8248 13.2056 19.2316 12.9057 19.5316C12.6058 19.8315 12.199 20 11.7748 20C11.3506 20 10.9439 19.8315 10.6439 19.5316C10.344 19.2316 10.1755 18.8248 10.1755 18.4007C10.1755 17.9765 10.344 17.5697 10.6439 17.2698C10.9439 16.9699 11.3506 16.8014 11.7748 16.8014C12.199 16.8014 12.6058 16.9699 12.9057 17.2698C13.2056 17.5697 13.3741 17.9765 13.3741 18.4007Z" fill="#B00020"/>
<path d="M22.5496 11.7748V12.2252H24.5496V11.7748H22.5496ZM1 12.2252V11.7748H-1V12.2252H1ZM11.7748 23C5.82405 23 1 18.176 1 12.2252H-1C-1 19.2805 4.71948 25 11.7748 25V23ZM22.5496 12.2252C22.5496 18.176 17.7256 23 11.7748 23V25C18.8301 25 24.5496 19.2805 24.5496 12.2252H22.5496ZM11.7748 1C17.7256 1 22.5496 5.82405 22.5496 11.7748H24.5496C24.5496 4.71948 18.8301 -1 11.7748 -1V1ZM11.7748 -1C4.71948 -1 -1 4.71948 -1 11.7748H1C1 5.82405 5.82405 1 11.7748 1V-1Z" fill="#B00020" fill-opacity="0.2"/>
</g>
</svg>
