<svg width="22" height="21" viewBox="0 0 22 21" fill="none" xmlns="http://www.w3.org/2000/svg">
<path d="M6.59406 15.1265L10.5505 11.2938L14.5069 15.1265L15.6147 14.0533L11.6583 10.2206L15.6147 6.38789L14.5069 5.31472L10.5505 9.14745L6.59406 5.31472L5.48626 6.38789L9.44269 10.2206L5.48626 14.0533L6.59406 15.1265ZM10.5505 20.4412C9.05602 20.4412 7.66652 20.1816 6.38305 19.6619C5.09958 19.1422 3.98281 18.4227 3.03327 17.5028C2.08372 16.5829 1.34097 15.5011 0.804475 14.2578C0.267983 13.0144 0 11.6684 0 10.2206C0 8.78973 0.267983 7.45236 0.804475 6.20902C1.34097 4.96569 2.08372 3.88383 3.03327 2.96398C3.98281 2.04412 5.09958 1.31999 6.38305 0.792098C7.66652 0.264203 9.05602 0 10.5505 0C12.0276 0 13.4081 0.264203 14.6916 0.792098C15.975 1.31999 17.0918 2.04412 18.0413 2.96398C18.9909 3.88383 19.7384 4.96569 20.2833 6.20902C20.8283 7.45236 21.101 8.78973 21.101 10.2206C21.101 11.6684 20.8283 13.0144 20.2833 14.2578C19.7384 15.5011 18.9909 16.5829 18.0413 17.5028C17.0918 18.4227 15.975 19.1422 14.6916 19.6619C13.4081 20.1816 12.0276 20.4412 10.5505 20.4412ZM10.5505 18.9081C13.0125 18.9081 15.1226 18.0563 16.8808 16.353C18.639 14.6497 19.5184 12.6056 19.5184 10.2206C19.5184 7.83564 18.639 5.79151 16.8808 4.08825C15.1226 2.38498 13.0125 1.53309 10.5505 1.53309C8.08854 1.53309 5.97844 2.38498 4.2202 4.08825C2.46196 5.79151 1.58257 7.83564 1.58257 10.2206C1.58257 12.6056 2.46196 14.6497 4.2202 16.353C5.97844 18.0563 8.08854 18.9081 10.5505 18.9081Z" fill="black"/>
</svg>
