<svg width="24" height="24" viewBox="0 0 24 24" fill="none" xmlns="http://www.w3.org/2000/svg">
<mask id="path-1-inside-1_965_3340" fill="white">
<path d="M21.6356 24L13.5061 15.6449L15.3522 13.7476L23.4818 22.1026L21.6356 24ZM2.81781 24L0.97166 22.1026L10.3644 12.4494L6.89879 8.88766L6.15385 9.65326L4.72874 8.18863V11.018L3.95142 11.8169L0 7.7559L0.777328 6.957H3.56275L2.0081 5.35922L6.25101 0.998613C6.6183 0.621137 7.01733 0.366158 7.44939 0.23301C7.88146 0.0998615 8.35628 0.0332872 8.87449 0.0332872C9.39271 0.0332872 9.86753 0.127823 10.2996 0.316228C10.7317 0.504633 11.1307 0.787573 11.498 1.16505L8.03239 4.72677L9.58704 6.32455L8.80972 7.12344L12.1781 10.5853L16.1296 6.52427C15.9566 6.23601 15.8219 5.90313 15.7247 5.52566C15.6275 5.14818 15.5789 4.74874 15.5789 4.32732C15.5789 3.15096 15.9948 2.1357 16.8259 1.28155C17.657 0.427406 18.6449 0 19.7895 0C20.1134 0 20.3887 0.0332872 20.6154 0.0998614C20.8421 0.166436 21.0313 0.254979 21.1822 0.366158L18.4291 3.19556L20.8583 5.69209L23.6113 2.86269C23.7195 3.04044 23.8108 3.25681 23.8866 3.51179C23.9624 3.76677 24 4.06103 24 4.3939C24 5.57026 23.5841 6.58552 22.753 7.43967C21.9219 8.29381 20.9341 8.72122 19.7895 8.72122C19.4008 8.72122 19.0659 8.69326 18.7854 8.638C18.5049 8.58275 18.2458 8.49953 18.0081 8.38835L2.81781 24Z"/>
</mask>
<path d="M21.6356 24L18.0521 27.4868L21.6356 31.1698L25.2192 27.4868L21.6356 24ZM13.5061 15.6449L9.92251 12.1581L6.52978 15.6449L9.92251 19.1318L13.5061 15.6449ZM15.3522 13.7476L18.9358 10.2607L15.3522 6.57776L11.7687 10.2607L15.3522 13.7476ZM23.4818 22.1026L27.0653 25.5895L30.4581 22.1026L27.0653 18.6158L23.4818 22.1026ZM2.81781 24L-0.765749 27.4868L2.81782 31.1698L6.40138 27.4868L2.81781 24ZM0.97166 22.1026L-2.6119 18.6158L-6.00464 22.1026L-2.6119 25.5895L0.97166 22.1026ZM10.3644 12.4494L13.9479 15.9362L17.3407 12.4494L13.9479 8.96254L10.3644 12.4494ZM6.89879 8.88766L10.4824 5.40081L6.89878 1.71784L3.31522 5.40082L6.89879 8.88766ZM6.15385 9.65326L2.57028 13.1401L6.15385 16.8231L9.73741 13.1401L6.15385 9.65326ZM4.72874 8.18863L8.31231 4.70179L-0.271255 -4.11989V8.18863H4.72874ZM4.72874 11.018L8.31231 14.5049L9.72874 13.0491V11.018H4.72874ZM3.95142 11.8169L0.367853 15.3038L3.95142 18.9867L7.53498 15.3038L3.95142 11.8169ZM0 7.7559L-3.58357 4.26905L-6.97629 7.7559L-3.58356 11.2427L0 7.7559ZM0.777328 6.957V1.957H-1.33392L-2.80624 3.47016L0.777328 6.957ZM3.56275 6.957V11.957H15.4041L7.14632 3.47016L3.56275 6.957ZM2.0081 5.35922L-1.57547 1.87238L-4.9682 5.35922L-1.57547 8.84607L2.0081 5.35922ZM6.25101 0.998613L2.66745 -2.48823L2.66745 -2.48823L6.25101 0.998613ZM11.498 1.16505L15.0815 4.65189L18.4743 1.16505L15.0815 -2.32179L11.498 1.16505ZM8.03239 4.72677L4.44882 1.23993L1.05609 4.72677L4.44882 8.21361L8.03239 4.72677ZM9.58704 6.32455L13.1706 9.81139L16.5633 6.32455L13.1706 2.83771L9.58704 6.32455ZM8.80972 7.12344L5.22615 3.6366L1.83342 7.12344L5.22615 10.6103L8.80972 7.12344ZM12.1781 10.5853L8.59457 14.0721L12.1781 17.7551L15.7617 14.0721L12.1781 10.5853ZM16.1296 6.52427L19.7131 10.0111L22.3973 7.25243L20.417 3.95184L16.1296 6.52427ZM21.1822 0.366158L24.7658 3.853L28.7656 -0.257823L24.1476 -3.65955L21.1822 0.366158ZM18.4291 3.19556L14.8456 -0.29128L11.4529 3.19556L14.8456 6.6824L18.4291 3.19556ZM20.8583 5.69209L17.2747 9.17894L20.8583 12.8619L24.4419 9.17894L20.8583 5.69209ZM23.6113 2.86269L27.8825 0.263297L24.5278 -5.24902L20.0278 -0.624151L23.6113 2.86269ZM18.0081 8.38835L20.1262 3.85917L16.9047 2.35256L14.4245 4.90151L18.0081 8.38835ZM25.2192 20.5132L17.0896 12.1581L9.92251 19.1318L18.0521 27.4868L25.2192 20.5132ZM17.0896 19.1318L18.9358 17.2344L11.7687 10.2607L9.92251 12.1581L17.0896 19.1318ZM11.7687 17.2344L19.8982 25.5895L27.0653 18.6158L18.9358 10.2607L11.7687 17.2344ZM19.8982 18.6158L18.0521 20.5132L25.2192 27.4868L27.0653 25.5895L19.8982 18.6158ZM6.40138 20.5132L4.55522 18.6158L-2.6119 25.5895L-0.765749 27.4868L6.40138 20.5132ZM4.55522 25.5895L13.9479 15.9362L6.78081 8.96253L-2.6119 18.6158L4.55522 25.5895ZM13.9479 8.96254L10.4824 5.40081L3.31522 12.3745L6.78081 15.9362L13.9479 8.96254ZM3.31522 5.40082L2.57028 6.16642L9.73741 13.1401L10.4824 12.3745L3.31522 5.40082ZM9.73741 6.16642L8.31231 4.70179L1.14518 11.6755L2.57028 13.1401L9.73741 6.16642ZM-0.271255 8.18863V11.018H9.72874V8.18863H-0.271255ZM1.14518 7.53119L0.367851 8.33008L7.53498 15.3038L8.31231 14.5049L1.14518 7.53119ZM7.53498 8.33008L3.58356 4.26905L-3.58356 11.2427L0.367853 15.3038L7.53498 8.33008ZM3.58357 11.2427L4.36089 10.4438L-2.80624 3.47016L-3.58357 4.26905L3.58357 11.2427ZM0.777328 11.957H3.56275V1.957H0.777328V11.957ZM7.14632 3.47016L5.59166 1.87238L-1.57547 8.84607L-0.0208116 10.4438L7.14632 3.47016ZM5.59166 8.84607L9.83458 4.48545L2.66745 -2.48823L-1.57547 1.87238L5.59166 8.84607ZM9.83458 4.48546C9.71478 4.60858 9.41409 4.85959 8.9219 5.01127L5.97689 -4.54525C4.62056 -4.12727 3.52182 -3.3663 2.66745 -2.48823L9.83458 4.48546ZM8.9219 5.01127C8.81339 5.04471 8.78425 5.03329 8.87449 5.03329V-4.96671C7.9283 -4.96671 6.94953 -4.84498 5.97689 -4.54525L8.9219 5.01127ZM8.87449 5.03329C8.77094 5.03329 8.55721 5.01114 8.30105 4.89944L12.2981 -4.26698C11.1779 -4.75549 10.0145 -4.96671 8.87449 -4.96671V5.03329ZM8.30105 4.89944C8.07051 4.79891 7.94445 4.68276 7.91441 4.65189L15.0815 -2.32179C14.3169 -3.10761 13.3928 -3.78965 12.2981 -4.26698L8.30105 4.89944ZM7.91441 -2.32179L4.44882 1.23993L11.616 8.21361L15.0815 4.65189L7.91441 -2.32179ZM4.44882 8.21361L6.00348 9.81139L13.1706 2.83771L11.616 1.23993L4.44882 8.21361ZM6.00348 2.83771L5.22615 3.6366L12.3933 10.6103L13.1706 9.81139L6.00348 2.83771ZM5.22615 10.6103L8.59457 14.0721L15.7617 7.09846L12.3933 3.6366L5.22615 10.6103ZM15.7617 14.0721L19.7131 10.0111L12.546 3.03743L8.59457 7.09846L15.7617 14.0721ZM20.417 3.95184C20.529 4.13846 20.5634 4.26579 20.5668 4.27924L10.8825 6.77208C11.0803 7.54048 11.3842 8.33356 11.8421 9.0967L20.417 3.95184ZM20.5668 4.27924C20.5744 4.30856 20.5776 4.32931 20.5788 4.33928C20.58 4.34903 20.5789 4.3457 20.5789 4.32732H10.5789C10.5789 5.13537 10.6725 5.95591 10.8825 6.77208L20.5668 4.27924ZM20.5789 4.32732C20.5789 4.34171 20.5735 4.44236 20.5179 4.57824C20.4628 4.71284 20.4016 4.77647 20.4095 4.7684L13.2423 -2.20529C11.517 -0.432066 10.5789 1.82865 10.5789 4.32732H20.5789ZM20.4095 4.7684C20.4184 4.75923 20.3423 4.83727 20.1749 4.90966C20.0033 4.98389 19.8561 5 19.7895 5V-5C17.233 -5 14.9706 -3.98147 13.2423 -2.20529L20.4095 4.7684ZM19.7895 5C19.7832 5 19.7299 4.99985 19.6387 4.98881C19.5484 4.97789 19.3985 4.95365 19.2067 4.89731L22.0241 -4.69759C21.206 -4.93782 20.427 -5 19.7895 -5V5ZM19.2067 4.89731C19.0207 4.8427 18.6452 4.70744 18.2168 4.39186L24.1476 -3.65955C23.4173 -4.19749 22.6635 -4.50983 22.0241 -4.69759L19.2067 4.89731ZM17.5986 -3.12068L14.8456 -0.29128L22.0127 6.6824L24.7658 3.853L17.5986 -3.12068ZM14.8456 6.6824L17.2747 9.17894L24.4419 2.20525L22.0127 -0.29128L14.8456 6.6824ZM24.4419 9.17894L27.1949 6.34953L20.0278 -0.624151L17.2747 2.20525L24.4419 9.17894ZM19.3401 5.46209C19.1688 5.18057 19.1058 4.97633 19.0939 4.93638L28.6794 2.0872C28.5159 1.53729 28.2702 0.900316 27.8825 0.263297L19.3401 5.46209ZM19.0939 4.93638C19.0018 4.62644 19 4.42327 19 4.3939H29C29 3.69878 28.9231 2.9071 28.6794 2.0872L19.0939 4.93638ZM19 4.3939C19 4.37951 19.0054 4.27887 19.061 4.14299C19.1162 4.00839 19.1773 3.94475 19.1695 3.95283L26.3366 10.9265C28.062 9.15328 29 6.89257 29 4.3939H19ZM19.1695 3.95283C19.1606 3.96199 19.2367 3.88395 19.404 3.81156C19.5757 3.73733 19.7228 3.72122 19.7895 3.72122V13.7212C22.3459 13.7212 24.6084 12.7027 26.3366 10.9265L19.1695 3.95283ZM19.7895 3.72122C19.752 3.72122 19.7226 3.72054 19.7006 3.7197C19.6785 3.71885 19.6654 3.71788 19.6606 3.71748C19.6557 3.71708 19.661 3.71739 19.6755 3.71934C19.6898 3.72128 19.7157 3.72518 19.7519 3.73229L17.819 13.5437C18.5055 13.679 19.18 13.7212 19.7895 13.7212V3.72122ZM19.7519 3.73229C19.834 3.74847 19.9657 3.78408 20.1262 3.85917L15.89 12.9175C16.526 13.215 17.1759 13.417 17.819 13.5437L19.7519 3.73229ZM14.4245 4.90151L-0.765751 20.5132L6.40138 27.4868L21.5917 11.8752L14.4245 4.90151Z" fill="#666666" mask="url(#path-1-inside-1_965_3340)"/>
</svg>
