<svg width="24" height="24" viewBox="0 0 24 24" fill="none" xmlns="http://www.w3.org/2000/svg">
<path d="M12 11.25C10.35 11.25 9 10.725 7.95 9.675C6.9 8.625 6.375 7.275 6.375 5.625C6.375 3.975 6.9 2.625 7.95 1.575C9 0.525 10.35 0 12 0C13.65 0 15 0.525 16.05 1.575C17.1 2.625 17.625 3.975 17.625 5.625C17.625 7.275 17.1 8.625 16.05 9.675C15 10.725 13.65 11.25 12 11.25ZM0 23.2875V19.7625C0 18.8123 0.23775 18 0.7125 17.325C1.18725 16.65 1.8 16.1378 2.55 15.7875C4.22475 15.0375 5.83125 14.475 7.36875 14.1C8.90625 13.725 10.4497 13.5375 12 13.5375C13.5503 13.5375 15.0877 13.731 16.6125 14.1188C18.1372 14.5065 19.7377 15.0623 21.4125 15.7875C22.1873 16.1378 22.8127 16.65 23.2875 17.325C23.7622 18 24 18.8123 24 19.7625V23.2875H0ZM2.25 21.0375H21.75V19.7625C21.75 19.3628 21.6315 18.981 21.3938 18.6188C21.156 18.2565 20.8627 17.9873 20.5125 17.8125C18.9127 17.0378 17.4503 16.506 16.125 16.2188C14.7998 15.9315 13.425 15.7875 12 15.7875C10.575 15.7875 9.1875 15.9315 7.8375 16.2188C6.4875 16.506 5.025 17.0378 3.45 17.8125C3.09975 17.9873 2.8125 18.2565 2.5875 18.6188C2.3625 18.981 2.25 19.3628 2.25 19.7625V21.0375ZM12 9C12.975 9 13.7812 8.68125 14.4188 8.04375C15.0563 7.40625 15.375 6.6 15.375 5.625C15.375 4.65 15.0563 3.84375 14.4188 3.20625C13.7812 2.56875 12.975 2.25 12 2.25C11.025 2.25 10.2188 2.56875 9.58125 3.20625C8.94375 3.84375 8.625 4.65 8.625 5.625C8.625 6.6 8.94375 7.40625 9.58125 8.04375C10.2188 8.68125 11.025 9 12 9Z" fill="#6200EE"/>
</svg>
