<svg width="24" height="27" viewBox="0 0 24 27" fill="none" xmlns="http://www.w3.org/2000/svg">
<path d="M5.33333 21.3333H14.4333V19.3333H5.33333V21.3333ZM5.33333 15.6667H18.6667V13.6667H5.33333V15.6667ZM5.33333 10H18.6667V8H5.33333V10ZM2 24.6667H22V4.66667H2V24.6667ZM2 4.66667V24.6667V4.66667ZM2 26.6667C1.44467 26.6667 0.972 26.472 0.583333 26.0833C0.194667 25.6947 0 25.222 0 24.6667V4.66667C0 4.11133 0.194667 3.63867 0.583333 3.25C0.972 2.86133 1.44467 2.66667 2 2.66667H8.83333C8.94467 1.88867 9.3 1.25 9.9 0.75C10.5 0.25 11.2 0 12 0C12.8 0 13.5 0.25 14.1 0.75C14.7 1.25 15.0553 1.88867 15.1667 2.66667H22C22.5553 2.66667 23.028 2.86133 23.4167 3.25C23.8053 3.63867 24 4.11133 24 4.66667V24.6667C24 25.222 23.8053 25.6947 23.4167 26.0833C23.028 26.472 22.5553 26.6667 22 26.6667H2ZM12 4.1C12.3113 4.1 12.5833 3.98333 12.8167 3.75C13.05 3.51667 13.1667 3.24467 13.1667 2.93333C13.1667 2.622 13.05 2.35 12.8167 2.11667C12.5833 1.88333 12.3113 1.76667 12 1.76667C11.6887 1.76667 11.4167 1.88333 11.1833 2.11667C10.95 2.35 10.8333 2.622 10.8333 2.93333C10.8333 3.24467 10.95 3.51667 11.1833 3.75C11.4167 3.98333 11.6887 4.1 12 4.1Z" fill="#666666"/>
</svg>
