<svg width="36" height="35" viewBox="0 0 36 35" fill="none" xmlns="http://www.w3.org/2000/svg">
<path d="M7.06806 26.6513C8.9144 25.4019 10.7458 24.4437 12.5631 23.7768C14.3804 23.1099 16.3288 22.776 18.4098 22.776C20.4909 22.776 22.4472 23.1099 24.2786 23.7768C26.1099 24.4437 27.9492 25.4019 29.7956 26.6513C31.0854 25.1182 32.0006 23.5707 32.5431 22.0095C33.0856 20.4483 33.3564 18.8011 33.3564 17.0695C33.3564 12.9532 31.9277 9.51052 29.0702 6.74243C26.2128 3.97435 22.6591 2.59031 18.4098 2.59031C14.1606 2.59031 10.6069 3.97435 7.74945 6.74243C4.89202 9.51052 3.46331 12.9532 3.46331 17.0695C3.46331 18.8011 3.74202 20.4483 4.29855 22.0095C4.85509 23.5707 5.77826 25.1182 7.06806 26.6513ZM18.4098 18.3471C16.7103 18.3471 15.2816 17.7867 14.1237 16.6649C12.9658 15.5432 12.3873 14.1592 12.3873 12.5128C12.3873 10.8665 12.9658 9.48241 14.1237 8.3607C15.2816 7.23899 16.7103 6.67856 18.4098 6.67856C20.1094 6.67856 21.5381 7.23899 22.696 8.3607C23.8539 9.48241 24.4324 10.8665 24.4324 12.5128C24.4324 14.1592 23.8539 15.5432 22.696 16.6649C21.5381 17.7867 20.1094 18.3471 18.4098 18.3471ZM18.4098 34.1039C16.007 34.1039 13.7351 33.6567 11.596 32.7624C9.45687 31.8681 7.58855 30.6476 5.99103 29.1C4.39351 27.5525 3.1336 25.7426 2.21044 23.6703C1.28727 21.5981 0.825684 19.3973 0.825684 17.0695C0.825684 14.7128 1.28727 12.506 2.21044 10.4474C3.1336 8.38881 4.39351 6.58657 5.99103 5.039C7.58855 3.49143 9.45687 2.27092 11.596 1.37661C13.7351 0.482308 16.007 0.0351562 18.4098 0.0351562C20.8426 0.0351562 23.1206 0.482308 25.2457 1.37661C27.3707 2.27092 29.2311 3.49143 30.8287 5.039C32.4262 6.58657 33.6861 8.38881 34.6092 10.4474C35.5324 12.506 35.994 14.7128 35.994 17.0695C35.994 19.3973 35.5324 21.5981 34.6092 23.6703C33.6861 25.7426 32.4262 27.5525 30.8287 29.1C29.2311 30.6476 27.3707 31.8681 25.2457 32.7624C23.1206 33.6567 20.8426 34.1039 18.4098 34.1039ZM18.4098 31.5487C20.0214 31.5487 21.597 31.3213 23.1356 30.8673C24.6742 30.4134 26.1908 29.6179 27.6855 28.4825C26.1908 27.4605 24.6672 26.6795 23.1136 26.1403C21.56 25.6012 19.9924 25.3312 18.4098 25.3312C16.8273 25.3312 15.2596 25.6012 13.7061 26.1403C12.1525 26.6795 10.6289 27.4605 9.1342 28.4825C10.6289 29.6179 12.1455 30.4134 13.6841 30.8673C15.2227 31.3213 16.7983 31.5487 18.4098 31.5487ZM18.4098 15.7919C19.406 15.7919 20.2193 15.487 20.8496 14.8763C21.48 14.2657 21.7948 13.4778 21.7948 12.5128C21.7948 11.5478 21.48 10.76 20.8496 10.1493C20.2193 9.53862 19.406 9.23371 18.4098 9.23371C17.4137 9.23371 16.6004 9.53862 15.97 10.1493C15.3396 10.76 15.0249 11.5478 15.0249 12.5128C15.0249 13.4778 15.3396 14.2657 15.97 14.8763C16.6004 15.487 17.4137 15.7919 18.4098 15.7919Z" fill="#666666"/>
</svg>
