<svg width="73" height="16" viewBox="0 0 73 16" fill="none" xmlns="http://www.w3.org/2000/svg">
<g id="Vector">
<path d="M56.0404 8.1338C56.0404 7.91829 56.0476 7.68841 56.0656 7.4298C56.1284 6.44742 56.326 5.52072 56.6546 4.66405C56.5289 4.01752 56.3116 3.43025 55.9991 2.90404C55.4765 2.02582 54.7671 1.35235 53.8691 0.883609C52.9712 0.413073 51.9583 0.179601 50.8304 0.179601C49.7026 0.179601 48.6789 0.425645 47.7594 0.915935C47.0284 1.30745 46.4106 1.82468 45.9042 2.46762C45.4354 1.80852 44.8428 1.27871 44.1244 0.885404C43.2677 0.414869 42.3177 0.181397 41.2724 0.181397C40.1643 0.181397 39.173 0.416665 38.2966 0.885404C37.826 1.13863 37.4094 1.44753 37.043 1.81211C36.427 0.811771 35.0459 0.310705 32.9393 0.49389V15.6264H37.043V6.69705C37.043 6.11158 37.1687 5.61051 37.4184 5.19386C37.6698 4.7754 38.0128 4.45752 38.4528 4.23842C38.891 4.01931 39.3813 3.90976 39.9255 3.90976C40.7408 3.90976 41.4233 4.1558 41.9782 4.64609C42.5314 5.13639 42.808 5.82064 42.808 6.69885V15.6282H46.9117V6.69885C46.9117 6.11338 47.0374 5.61231 47.287 5.19565C47.5385 4.7772 47.8869 4.45932 48.3358 4.24021C48.7848 4.02111 49.2697 3.91156 49.7924 3.91156C50.6077 3.91156 51.2902 4.1576 51.8451 4.64789C52.3983 5.13818 52.6748 5.82243 52.6748 6.70065V15.63H56.7785V11.8855C56.3745 10.9462 56.132 9.92256 56.062 8.83242C56.0458 8.5774 56.0368 8.35111 56.0368 8.1374L56.0404 8.1338Z" fill="#1E1E64"/>
<path d="M68.4144 15.6839H72.4876V0.551355C72.2074 0.529804 71.9416 0.519028 71.6902 0.519028C69.9715 0.519028 68.9029 1.02907 68.4144 1.99708C67.9978 1.55528 67.5093 1.18712 66.9417 0.897971C66.0851 0.459763 65.1135 0.240658 64.0287 0.240658C62.6495 0.240658 61.4067 0.585478 60.3004 1.27512C59.1923 1.96476 58.3266 2.90403 57.6999 4.09474C57.1665 5.10944 56.8612 6.23729 56.7821 7.47828C56.7678 7.69379 56.7588 7.9129 56.7588 8.1356C56.7588 8.35829 56.7678 8.57201 56.7821 8.78393C56.8612 10.0106 57.1647 11.1312 57.6999 12.1459C58.3266 13.3366 59.1923 14.2759 60.3004 14.9655C61.4067 15.6552 62.6495 16 64.0287 16C65.1153 16 66.0851 15.7755 66.9417 15.3265C67.5093 15.0302 67.9978 14.6602 68.4144 14.2202V15.6875V15.6839ZM67.5685 11.063C66.8573 11.8262 65.9288 12.207 64.7794 12.207C64.0269 12.207 63.3642 12.0346 62.7895 11.6898C62.2148 11.3449 61.7659 10.8654 61.4426 10.2494C61.1193 9.63341 60.9577 8.91683 60.9577 8.10327C60.9577 7.28971 61.1193 6.60546 61.4426 5.98765C61.7659 5.37165 62.2148 4.89034 62.7895 4.54552C63.3642 4.2007 64.0269 4.02829 64.7794 4.02829C65.5319 4.02829 66.2252 4.2007 66.7999 4.54552C67.3746 4.89034 67.8235 5.37165 68.1468 5.98765C68.4701 6.60366 68.6317 7.30946 68.6317 8.10327C68.6317 9.31553 68.2761 10.3015 67.5667 11.0648L67.5685 11.063Z" fill="#1E1E64"/>
<path d="M31.0643 3.86845C30.3531 2.68852 29.3887 1.74924 28.1657 1.04883C26.9444 0.350208 25.5598 0 24.0135 0C22.4672 0 21.1418 0.350208 19.9098 1.04883C19.2884 1.40263 18.7334 1.81569 18.2449 2.29162L16.0162 6.66113C15.9605 7.05085 15.93 7.45134 15.93 7.86441C15.93 9.34785 16.2909 10.6894 17.0111 11.8909C17.7313 13.0924 18.7029 14.0424 19.9241 14.7428C21.1454 15.4433 22.5193 15.7917 24.044 15.7917C25.5688 15.7917 26.9426 15.4415 28.1639 14.7428C29.3851 14.0424 30.3513 13.0924 31.0625 11.8909C31.7719 10.6894 32.1275 9.34785 32.1275 7.86441C32.1275 6.38096 31.7719 5.05017 31.0625 3.87024L31.0643 3.86845ZM27.4455 10.0088C27.1222 10.6248 26.6625 11.1061 26.0662 11.4491C25.4718 11.7939 24.7857 11.9663 24.0135 11.9663C23.2412 11.9663 22.5929 11.7939 22.0074 11.4491C21.4219 11.1043 20.9622 10.6248 20.6281 10.0088C20.2941 9.39275 20.1271 8.68694 20.1271 7.89314C20.1271 7.09934 20.2941 6.40072 20.6281 5.79369C20.9622 5.18846 21.4219 4.71254 22.0074 4.36772C22.5911 4.0229 23.261 3.85049 24.0135 3.85049C24.766 3.85049 25.4646 4.0229 26.0501 4.36772C26.6337 4.71254 27.0935 5.18846 27.4293 5.79369C27.7634 6.39892 27.9304 7.09934 27.9304 7.89314C27.9304 8.68694 27.7688 9.39275 27.4455 10.0088Z" fill="#33A34D"/>
<path d="M17.7008 0.373559C15.8653 0.373559 14.1663 1.24998 13.096 2.68672C13.1229 2.86811 13.1409 3.0531 13.1409 3.24167C13.1409 4.71613 12.3111 6.00023 11.0935 6.65215L9.27422 10.499L7.4693 6.66113C6.24268 6.011 5.40397 4.72332 5.40397 3.24167C5.40397 3.04412 5.42373 2.85195 5.45246 2.66338C4.38029 1.2392 2.69031 0.373559 0.863845 0.373559H0L7.75126 15.5061H10.6966L18.4173 0.373559H17.7008Z" fill="#33A34D"/>
<path d="M6.12414 3.24168C6.12414 3.34584 6.12952 3.44821 6.1403 3.54878C6.1403 3.55956 6.14209 3.56854 6.14389 3.57932C6.16544 3.77687 6.20495 3.96903 6.26063 4.15581C6.26601 4.17377 6.2714 4.18993 6.27679 4.20789C6.30193 4.28871 6.33067 4.36773 6.36299 4.44496C6.36659 4.45573 6.37018 4.46471 6.37557 4.47549C6.41149 4.5599 6.451 4.64071 6.4941 4.71974C6.50487 4.73949 6.51745 4.76104 6.52822 4.7808C6.56234 4.84186 6.60006 4.90292 6.63777 4.96219C6.65034 4.98194 6.66292 5.0017 6.67728 5.02145C6.72577 5.09149 6.77606 5.15974 6.82994 5.22619C6.8479 5.24774 6.86765 5.26929 6.88561 5.29264C6.92333 5.33754 6.96284 5.38064 7.00414 5.42195C7.02929 5.44888 7.05623 5.47582 7.08137 5.50097C7.12268 5.54048 7.16398 5.57819 7.20709 5.61411C7.25558 5.65721 7.30586 5.69672 7.35794 5.73623C7.39207 5.76138 7.42439 5.78652 7.45852 5.81166C7.49982 5.8404 7.54113 5.86734 7.58244 5.89428C7.61297 5.91403 7.6435 5.93199 7.67403 5.94995C7.71893 5.97689 7.76383 6.00383 7.80872 6.02718C8.24693 6.25706 8.74261 6.38996 9.27241 6.38996C9.80221 6.38996 10.3123 6.25526 10.7541 6.01999C10.7846 6.00383 10.8133 5.98587 10.8439 5.96791C10.8906 5.94097 10.9354 5.91403 10.9803 5.8853C11.0145 5.86375 11.0468 5.8404 11.0791 5.81885C11.1258 5.78652 11.1707 5.7524 11.2138 5.71828C11.239 5.69852 11.2623 5.68056 11.2875 5.66081C11.3503 5.60872 11.4114 5.55305 11.4706 5.49378C11.4922 5.47223 11.5137 5.44888 11.5353 5.42733C11.5802 5.38244 11.6215 5.33395 11.6628 5.28545C11.6808 5.2657 11.6969 5.24594 11.7149 5.22619C11.7688 5.15974 11.8208 5.0897 11.8693 5.01966C11.8819 5.0017 11.8927 4.98374 11.9035 4.96578C11.943 4.90651 11.9789 4.84545 12.0148 4.78259C12.0274 4.76104 12.0382 4.73949 12.0507 4.71794C12.092 4.63892 12.1315 4.5581 12.1675 4.47549C12.1711 4.46651 12.1746 4.45573 12.1782 4.44675C12.2106 4.36953 12.2393 4.29051 12.2644 4.20969C12.2698 4.19173 12.277 4.17197 12.2824 4.15401C12.3381 3.96903 12.3776 3.77866 12.3991 3.58111C12.3991 3.57034 12.4009 3.56136 12.4027 3.55058C12.4117 3.45001 12.4189 3.34764 12.4189 3.24347C12.4189 3.15368 12.4135 3.06388 12.4045 2.97588C12.3991 2.91841 12.392 2.86274 12.3848 2.80706C12.1711 1.27692 10.86 0.0969941 9.27062 0.0969941C7.68121 0.0969941 6.37916 1.26794 6.15826 2.7909C6.14928 2.85196 6.1403 2.91302 6.13491 2.97588C6.12773 3.06568 6.12054 3.15547 6.12054 3.24527L6.12414 3.24168Z" fill="#33A34D"/>
</g>
</svg>
